<svg
							width="388"
							height="397"
							viewBox="0 0 388 397"
							fill="none"
							xmlns="http://www.w3.org/2000/svg"
							class="nav__logo-img"
						>
							<path
								d="M196.014 384.784C226.396 391.798 258.208 389.171 287.026 377.266C315.844 365.362 340.237 344.772 356.811 318.362C373.385 291.951 381.317 261.032 379.503 229.904C377.689 198.776 366.221 168.988 346.691 144.681"
								stroke="black"
								stroke-width="15"
								stroke-linejoin="round"
								class="nav__logo-img"
							/>
							<path
								d="M180.919 380.456C157.407 372.359 136.276 358.545 119.429 340.254C102.581 321.964 90.5454 299.772 84.4038 275.676C78.2622 251.579 78.2076 226.334 84.245 202.211C90.2824 178.088 102.222 155.844 118.991 137.481"
								stroke="black"
								stroke-width="12"
								stroke-linejoin="round"
								class="nav__logo-img"
							/>
							<path
								d="M157.408 168.052C167.838 171.643 178.873 173.146 189.883 172.472C200.894 171.799 211.664 168.964 221.579 164.128C231.493 159.293 240.359 152.552 247.668 144.29C254.978 136.029 260.588 126.408 264.18 115.978C267.771 105.548 269.274 94.513 268.6 83.5025C267.927 72.492 265.092 61.722 260.256 51.8072C255.421 41.8925 248.68 33.0273 240.418 25.7177C232.157 18.4082 222.536 12.7974 212.106 9.20587C201.676 5.6143 190.641 4.11224 179.631 4.78545C168.62 5.45865 157.85 8.29394 147.935 13.1294C138.021 17.9649 129.155 24.7059 121.846 32.9675C114.536 41.2291 108.925 50.8496 105.334 61.2795C101.742 71.7095 100.24 82.7448 100.913 93.7553C101.587 104.766 104.422 115.536 109.257 125.451C114.093 135.365 120.834 144.23 129.096 151.54C137.357 158.85 146.978 164.46 157.408 168.052L157.408 168.052Z"
								stroke="black"
								stroke-width="8"
								stroke-linejoin="round"
								class="nav__logo-img"
							/>
							<path
								d="M81.6381 201.001C94.708 176.889 101.646 124.52 24.8362 107.94C10.7262 141.967 2.33256 208.216 81.6381 201.001Z"
								fill="black"
								stroke="black"
								stroke-width="8"
								class="nav__logo-img--fill"
							/>
							<path
								d="M104.001 241.463C75.6447 281.111 109.514 334.644 145.013 335.803C202.663 337.684 234.22 268.002 212.352 219.917C212.352 219.917 142.718 187.329 104.001 241.463Z"
								fill="black"
								stroke="black"
								stroke-width="9"
								class="nav__logo-img--fill"
							/>
							<path
								d="M160.757 9.12887C166.424 37.1289 195.757 91.5289 267.757 85.1289C264.757 52.4622 239.157 -8.47113 160.757 9.12887Z"
								fill="none"
								stroke="black"
								class="nav__logo-img--fill"
							/>
						</svg>